PathFileType	4	(X/Y/Z)	C:\Users\Basilio\Documents\Thesis Gigler\squatting_fais\c3dfiles\041\SLS_pre_back2\markers_experimental.trc
DataRate	CameraRate	NumFrames	NumMarkers	Units	OrigDataRate	OrigDataStartFrame	OrigNumFrames
200.000000	200.000000	4	63	mm	200.000000	918	1837
Frame#	Time	FHD			LBHD			RBHD			C7			T10			CLAV			LSHO			LUUPA			LMUPA			LDUPA			LLEP			LMEP			LRAD			LUL			LRFIN			RSHO			RUPA1			RMUPA			RDUPA			RLEP			RMEP			RRAD			RUL			RUFIN			LASI			RASI			USACR			LSACR			RSACR			LTHI1			LTHI2			LTHI3			LTHI4			LLFC			LMFC			LTIB1			LTIB2			LTIB3			LTIB4			LLMAL			LMMAL			LHEE			LMT1			LMT2			LMT5			RTHI			RTHI2			RTHI3			RTHI4			RLFC			RMFC			RTIB1			RTIB2			RTIB3			RTIB4			RLMAL			RMMAL			RHEE			RMT1			RMT2			RMT5			*61			*62			
		X1	Y1	Z1	X2	Y2	Z2	X3	Y3	Z3	X4	Y4	Z4	X5	Y5	Z5	X6	Y6	Z6	X7	Y7	Z7	X8	Y8	Z8	X9	Y9	Z9	X10	Y10	Z10	X11	Y11	Z11	X12	Y12	Z12	X13	Y13	Z13	X14	Y14	Z14	X15	Y15	Z15	X16	Y16	Z16	X17	Y17	Z17	X18	Y18	Z18	X19	Y19	Z19	X20	Y20	Z20	X21	Y21	Z21	X22	Y22	Z22	X23	Y23	Z23	X24	Y24	Z24	X25	Y25	Z25	X26	Y26	Z26	X27	Y27	Z27	X28	Y28	Z28	X29	Y29	Z29	X30	Y30	Z30	X31	Y31	Z31	X32	Y32	Z32	X33	Y33	Z33	X34	Y34	Z34	X35	Y35	Z35	X36	Y36	Z36	X37	Y37	Z37	X38	Y38	Z38	X39	Y39	Z39	X40	Y40	Z40	X41	Y41	Z41	X42	Y42	Z42	X43	Y43	Z43	X44	Y44	Z44	X45	Y45	Z45	X46	Y46	Z46	X47	Y47	Z47	X48	Y48	Z48	X49	Y49	Z49	X50	Y50	Z50	X51	Y51	Z51	X52	Y52	Z52	X53	Y53	Z53	X54	Y54	Z54	X55	Y55	Z55	X56	Y56	Z56	X57	Y57	Z57	X58	Y58	Z58	X59	Y59	Z59	X60	Y60	Z60	X61	Y61	Z61	X62	Y62	Z62	X63	Y63	Z63	

919	4.59	-66.53429412841798	1635.343994140625	-1134.131958007813	-243.2933044433594	1561.658935546875	-1203.857666015625	-220.1331024169922	1569.696533203125	-1052.308227539063	-286.2864074707032	1451.265625	-1134.97216796875	-426.4453125000001	1180.25	-1100.541259765625	nan	nan	nan	-206.051010131836	1448.414672851563	-1265.9033203125	-102.9473037719727	1431.023559570313	-1393.283081054688	-59.35462570190431	1441.853759765625	-1374.4677734375	-46.10115814208985	1429.565795898438	-1433.163818359375	-1.628960371017456	1424.896728515625	-1451.294189453125	31.49195289611817	1350.900634765625	-1423.203491210938	280.0604553222657	1442.878173828125	-1454.2392578125	261.5007934570313	1444.759643554688	-1525.801391601563	347.3664245605469	1480.296264648438	-1468.888671875	-188.3407440185547	1466.431884765625	-1022.530822753906	-38.17995071411134	1463.36376953125	-917.601257324219	-21.6578426361084	1484.043334960938	-961.1699829101565	29.37928581237794	1481.8671875	-930.0734863281252	74.51821136474611	1484.210327148438	-935.4993286132815	90.69402313232423	1401.142211914063	-951.9270019531252	331.8650817871094	1476.763305664063	-1023.908996582031	337.7137756347657	1497.438598632813	-950.8697509765627	413.6430053710939	1494.848022460938	-1037.349243164063	-317.2148742675782	950.4270629882815	-1182.933349609375	-351.9760437011719	944.0560302734377	-960.2603759765627	-478.7366638183595	1076.788208007813	-1094.211669921875	-498.2677612304689	1055.941528320313	-1124.3193359375	-507.596893310547	1056.299926757813	-1069.107788085938	-383.1543579101563	768.4783325195315	-1257.57275390625	-317.7763366699219	715.7596435546876	-1247.091430664063	-277.5926818847657	737.4949340820314	-1235.377319335938	-320.4721984863282	654.2759399414064	-1233.360717773438	-237.0789489746094	505.4688415527345	-1198.752685546875	-235.3841857910157	502.220672607422	-1082.7373046875	-247.1464385986329	323.0596008300782	-1118.671630859375	-302.4158325195313	284.5690612792969	-1178.312622070313	-268.2034912109376	275.5358886718751	-1149.986938476563	-291.8293151855469	207.1697540283204	-1106.826293945313	-372.1818847656251	124.6853485107422	-1140.301147460938	-340.2648620605469	140.0334625244141	-1057.030639648438	-443.6511840820314	111.2198333740235	-1097.373046875	-241.6183471679688	64.81187438964845	-1051.122436523438	-230.0129699707032	55.95971679687501	-1094.195922851563	-272.7260742187501	39.74540328979493	-1153.579956054688	-534.9925537109376	723.0818481445314	-896.2114868164065	-510.3150634765626	662.0145874023439	-887.1546020507815	-478.0555725097657	655.0711059570314	-889.6962890625002	-554.5410156250001	590.3626708984376	-901.5452270507815	-587.0208740234376	492.6565246582032	-897.5368652343752	-579.6001586914064	454.8235168457032	-1008.301879882813	-712.8247680664064	386.1119384765626	-900.4315185546877	-817.7781372070315	428.8835449218751	-898.9241943359377	-799.856384277344	385.9152221679689	-893.5037841796877	-831.3481445312502	341.2394409179688	-917.7252197265627	-965.2530517578127	337.5612182617188	-910.4744262695315	-926.736511230469	318.3696899414063	-984.9482421875002	-1023.183227539063	368.3386840820313	-966.189880371094	-922.0150146484377	176.311752319336	-970.361755371094	-923.0622558593752	172.0660705566407	-917.7449951171877	-970.3696289062502	197.2418823242188	-877.4589843750002	nan	nan	nan	-4217.110351562501	853.1374511718752	-3944.743896484376	
920	4.595	-66.40357208251955	1634.63671875	-1134.24755859375	-242.9986724853516	1560.767211914063	-1204.007934570313	-219.9173889160157	1568.653442382813	-1052.359252929688	-286.1592407226563	1450.539306640625	-1135.000854492188	-426.4092712402345	1179.56201171875	-1100.539428710938	nan	nan	nan	-205.5147399902344	1447.406982421875	-1265.904052734375	-102.9030838012696	1430.288452148438	-1393.234619140625	-59.0139846801758	1441.1005859375	-1374.531982421875	-45.89726638793946	1428.880126953125	-1433.130737304688	-1.20848822593689	1424.015380859375	-1451.202270507813	31.78300285339356	1350.247802734375	-1423.148071289063	280.1164245605469	1442.469604492188	-1454.165161132813	261.5416870117188	1444.145629882813	-1525.758911132813	347.4335632324219	1479.834106445313	-1468.844482421875	-188.0856628417969	1465.580200195313	-1022.627380371094	-38.11473846435548	1462.632446289063	-917.7640380859377	-21.39451980590821	1483.371826171875	-961.2874145507815	29.61208534240723	1481.212768554688	-930.3547973632815	74.60025024414064	1483.662475585938	-935.6781005859377	91.2174758911133	1400.135498046875	-951.8895263671877	332.5378112792969	1475.687622070313	-1024.033081054688	337.9379882812501	1496.85205078125	-951.045104980469	413.7371826171876	1494.1591796875	-1037.404418945313	-317.3450927734376	949.9393310546877	-1182.922119140625	-352.1932067871094	943.3310546875002	-960.1138305664065	-478.8308715820314	1076.142578125	-1094.151245117188	-498.2843627929689	1055.263916015625	-1124.257202148438	-507.6405334472657	1055.678466796875	-1069.148315429688	-382.9952392578126	768.0471191406252	-1257.554443359375	-317.5447692871094	715.4140014648439	-1247.16796875	-277.4732971191407	737.1530151367189	-1235.408447265625	-320.1577453613282	653.9254760742189	-1233.195922851563	-236.4608917236329	505.1657104492189	-1198.745361328125	-234.5411682128907	502.0201721191407	-1082.967407226563	-246.8489074707032	322.8649597167969	-1118.596801757813	-302.2546997070313	284.6419372558594	-1177.363647460938	-267.8341979980469	275.3489074707032	-1149.91552734375	-291.7257690429688	207.0985260009766	-1106.710693359375	-372.1304626464844	124.7174987792969	-1140.225830078125	-340.2563476562501	140.0234069824219	-1056.93408203125	-443.624481201172	111.2184143066407	-1097.365966796875	-241.6088104248047	64.76367950439455	-1051.05419921875	-230.0518646240235	55.97208404541017	-1094.130981445313	-272.3501586914063	39.57749176025391	-1153.493774414063	-534.9808959960939	722.4852905273439	-896.332946777344	-510.7175598144532	661.3082885742189	-887.0690917968752	-478.1704406738282	654.3345336914064	-889.7808227539065	-554.6763916015626	589.5574951171876	-901.455261230469	-587.1486816406251	491.6487731933595	-897.7312011718752	-579.7619018554689	454.0925903320314	-1008.287353515625	-713.0455932617189	385.5389404296876	-900.5134887695315	-818.0438232421877	428.4381103515626	-899.077331542969	-800.0364990234377	385.4487609863282	-893.8303833007815	-831.6170654296877	340.7193298339844	-918.0314941406252	-965.4342041015627	337.1950073242188	-910.7954711914065	-926.9324951171877	317.9286804199219	-985.2720947265627	-1023.519592285156	367.8434448242188	-966.458190917969	-922.0515136718752	176.4237213134766	-970.6009521484377	-923.1309204101565	171.677963256836	-917.8243408203127	-970.4297485351565	196.7601318359376	-877.5508422851565	nan	nan	nan	-4216.979492187501	853.1790771484377	-3944.816406250001	
921	4.600000000000001	-65.6526565551758	1633.515869140625	-1134.358520507813	-242.7264556884766	1559.909057617188	-1204.105224609375	-219.8906402587891	1567.866333007813	-1052.384399414063	-285.8869018554688	1449.670776367188	-1135.1357421875	-426.4100341796876	1178.845703125	-1100.496459960938	nan	nan	nan	-205.7777404785157	1446.755493164063	-1265.986450195313	-102.4413986206055	1429.4501953125	-1393.421630859375	-58.85544204711915	1440.406982421875	-1374.542602539063	-45.56414413452149	1428.00244140625	-1433.057739257813	-1.012586832046509	1423.371826171875	-1451.30126953125	31.84764480590821	1349.47509765625	-1423.042114257813	280.1031799316407	1442.052612304688	-1454.239379882813	261.5479736328126	1443.600830078125	-1525.735107421875	347.5409240722657	1479.404296875	-1468.807373046875	-187.9278259277344	1464.826293945313	-1022.751037597656	-37.64068603515626	1461.875	-917.814636230469	-21.24862670898438	1482.685791015625	-961.3792114257815	29.71906471252442	1480.469970703125	-930.302429199219	74.87767028808595	1482.876586914063	-935.7680664062502	91.48153686523439	1399.418701171875	-951.977722167969	332.7504577636719	1474.91357421875	-1024.244750976563	338.1205444335938	1496.036987304688	-951.2713012695315	413.7242736816407	1493.294189453125	-1037.503540039063	-317.4732360839844	949.3825683593752	-1182.818115234375	-352.3802185058594	942.709655761719	-960.229187011719	-478.7770996093751	1075.46875	-1094.142822265625	-498.2722778320314	1054.668579101563	-1124.271606445313	-507.684051513672	1055.107177734375	-1069.172485351563	-382.8700256347657	767.5712890625001	-1257.564453125	-316.8732299804688	714.6259155273439	-1246.966186523438	-277.5262756347657	736.9142456054689	-1235.29736328125	-319.8136901855469	653.7556152343751	-1233.132202148438	-235.9563903808594	504.8879699707032	-1198.779174804688	-234.1365966796876	501.9177856445314	-1082.85107421875	-246.4876403808594	322.5915222167969	-1118.599975585938	-301.6901550292969	284.2907104492188	-1178.0234375	-267.5396728515626	275.2744445800782	-1149.902587890625	-291.6155395507813	206.9746704101563	-1106.622314453125	-372.0795593261719	124.701416015625	-1140.140014648438	-340.1995544433594	139.9784240722657	-1056.82568359375	-443.6381835937501	111.2238998413086	-1097.316650390625	-241.6709899902344	64.70084381103517	-1050.970947265625	-230.0600891113282	55.95584869384767	-1094.151733398438	-272.6898193359376	39.81730651855469	-1153.579467773438	-535.1802368164064	721.7733154296876	-896.4026489257815	-510.6203613281251	660.3582763671876	-887.1376953125002	-478.3269958496095	653.5392456054689	-889.8870849609377	-554.7711181640626	588.6996459960939	-901.4383544921877	-587.3138427734376	491.110076904297	-897.7172851562502	-579.9488525390626	453.3820190429689	-1008.315979003906	-713.2168579101564	384.5630798339845	-900.6111450195315	-818.277770996094	428.0128784179689	-899.2840576171877	-800.346374511719	384.9231567382814	-893.874450683594	-832.1107177734377	340.0884399414063	-919.1837158203127	-965.6251220703127	336.7175292968751	-911.1640625000002	-927.0386352539065	317.5221557617188	-985.5339355468752	-1023.702270507813	367.3203430175782	-966.836120605469	-921.936462402344	175.8871765136719	-970.885925292969	-923.1863403320315	171.470458984375	-918.0648193359377	-970.2442626953127	196.0256500244141	-877.8704223632815	nan	nan	nan	-4217.076171875001	853.1907348632815	-3944.798095703126	
922	4.605	-65.33212280273439	1632.591674804688	-1134.476806640625	-242.6058349609376	1559.127563476563	-1204.174194335938	-219.5666656494141	1567.039428710938	-1052.617919921875	-285.5528259277344	1448.899291992188	-1135.219604492188	-426.3978576660157	1178.11962890625	-1100.525634765625	nan	nan	nan	-205.4850158691407	1445.9404296875	-1266.005615234375	-102.0613021850586	1428.667236328125	-1393.430297851563	-58.62725067138673	1439.60888671875	-1374.561645507813	-45.53752517700196	1427.2763671875	-1433.06201171875	-0.8397135734558108	1422.62548828125	-1451.330078125	31.64111137390137	1348.80859375	-1423.305297851563	280.4338989257813	1441.387084960938	-1454.347534179688	261.5676269531251	1443.039306640625	-1525.740234375	347.5642089843751	1478.921752929688	-1468.762084960938	-187.6240386962891	1463.939208984375	-1022.927368164063	-37.47785186767579	1461.072143554688	-917.9213867187502	-21.2655258178711	1481.90771484375	-961.4510498046877	30.08534622192384	1479.55712890625	-930.5119628906252	75.1072463989258	1482.166870117188	-935.9111328125002	91.56917572021486	1398.455078125	-952.1956176757815	332.5104064941407	1474.571411132813	-1024.368408203125	338.3548583984376	1495.18994140625	-951.4152832031252	414.1544799804689	1492.696166992188	-1037.7021484375	-317.6257324218751	948.7015380859377	-1182.78564453125	-352.5653076171876	941.878601074219	-960.1574707031252	-478.8107910156251	1074.94677734375	-1094.109130859375	-498.3233337402345	1054.088500976563	-1124.22021484375	-507.7664489746095	1054.499145507813	-1069.04248046875	-382.6444702148438	767.0187988281251	-1257.568603515625	-316.5626220703126	714.2047729492189	-1246.915893554688	-277.2149963378907	736.4713134765626	-1235.434448242188	-319.5556335449219	653.4818725585939	-1233.07958984375	-236.0011138916016	504.8299255371095	-1198.895629882813	-233.5834960937501	501.7252807617189	-1082.817993164063	-246.1490478515626	322.3662109375001	-1118.597778320313	-301.6762695312501	284.4738464355469	-1177.859619140625	-267.3507385253907	275.1217346191407	-1149.813720703125	-291.5309753417969	206.9201354980469	-1106.521362304688	-372.0207214355469	124.7534484863282	-1140.130126953125	-340.2109069824219	139.9501953125	-1056.743530273438	-443.6194152832032	111.2527465820313	-1097.277587890625	-241.6372680664063	64.6233596801758	-1050.912353515625	-230.0261688232422	55.88482666015626	-1094.072509765625	-272.7129516601563	39.81061172485352	-1153.518798828125	-535.3666992187501	721.0233154296876	-896.3107910156252	-510.794647216797	659.5479125976564	-887.2631835937502	-478.4594116210939	652.7316284179689	-889.7197875976565	-554.9620971679689	588.0842285156251	-901.392028808594	-587.3547363281251	490.4456787109376	-897.6608886718752	-580.0034179687501	452.6318664550782	-1008.390441894531	-713.3166503906251	384.038299560547	-900.7921142578127	-818.2880859375002	427.3543395996095	-899.4923095703127	-800.5242919921877	384.1907348632814	-894.0877075195315	-832.238708496094	339.6902770996094	-919.4998779296877	-965.8341064453127	336.3273925781251	-911.4696044921877	-927.1135253906252	317.0942687988282	-985.6921386718752	-1024.039306640625	366.7209167480469	-967.0213012695315	-922.1287841796877	175.7398681640625	-971.190368652344	-923.1706542968752	171.072006225586	-918.281921386719	-970.3249511718752	195.8695068359376	-877.900817871094	nan	nan	nan	-4216.854492187501	853.1552734375002	-3944.654296875001	
